<svg xmlns="http://www.w3.org/2000/svg" viewBox="0 0 60 60" fill="none">
    <g clip-path="url(#clip0_428_32)">
        <path
            d="M22.48 23.2H37.312V26.752H35.152V25.36H31.168V35.656C31.168 36.88 31.816 37.696 33.376 37.696V39.952V40C33.304 40 33.256 40 33.184 40H27.736V37.84H29.44C29.008 37.168 28.768 36.4 28.768 35.56V25.36H24.64V26.752H22.48V23.2Z"
            fill="currentColor" />
        <path
            d="M30 59.5C46.2924 59.5 59.5 46.2924 59.5 30C59.5 13.7076 46.2924 0.5 30 0.5C13.7076 0.5 0.5 13.7076 0.5 30C0.5 46.2924 13.7076 59.5 30 59.5Z"
            stroke="currentColor" />
    </g>
    <defs>
        <clipPath id="clip0_428_32">
            <rect width="60" height="60" fill="white" />
        </clipPath>
    </defs>
</svg>